<?xml version="1.0" encoding="utf-8"?>
<!-- Generator: Adobe Illustrator 16.0.0, SVG Export Plug-In . SVG Version: 6.00 Build 0)  -->
<!DOCTYPE svg PUBLIC "-//W3C//DTD SVG 1.1//EN" "http://www.w3.org/Graphics/SVG/1.1/DTD/svg11.dtd">
<svg version="1.1" id="Layer_1" xmlns="http://www.w3.org/2000/svg" xmlns:xlink="http://www.w3.org/1999/xlink" x="0px" y="0px"
	 width="500px" height="88.5px" viewBox="0 0 500 88.5" enable-background="new 0 0 500 88.5" xml:space="preserve">
<g>
	<g>
		<g>
			<g>
				<line fill="none" stroke="#A0D2F4" stroke-width="7" stroke-miterlimit="10" x1="497" y1="12.5" x2="497" y2="75.5"/>
			</g>
			<g>
				<line fill="none" stroke="#A0D2F4" stroke-width="7" stroke-miterlimit="10" x1="482" y1="12.5" x2="482" y2="75.5"/>
			</g>
			<g>
				<line fill="none" stroke="#A0D2F4" stroke-width="7" stroke-miterlimit="10" x1="467" y1="16.5" x2="467" y2="71.5"/>
			</g>
		</g>
	</g>
	<g>
		<g>
			<g>
				<line fill="none" stroke="#A0D2F4" stroke-width="7" stroke-miterlimit="10" x1="427.9" y1="16.5" x2="427.9" y2="71.5"/>
			</g>
			<g>
				<line fill="none" stroke="#A0D2F4" stroke-width="7" stroke-miterlimit="10" x1="412.9" y1="12.5" x2="412.9" y2="75.5"/>
			</g>
			<g>
				<line fill="none" stroke="#A0D2F4" stroke-width="7" stroke-miterlimit="10" x1="397.9" y1="12.5" x2="397.9" y2="75.5"/>
			</g>
			<g>
				<line fill="none" stroke="#A0D2F4" stroke-width="7" stroke-miterlimit="10" x1="382.9" y1="12.5" x2="382.9" y2="75.5"/>
			</g>
			<g>
				<line fill="none" stroke="#A0D2F4" stroke-width="7" stroke-miterlimit="10" x1="367.9" y1="16.5" x2="367.9" y2="71.5"/>
			</g>
		</g>
	</g>
	<g>
		<g>
			<g>
				<line fill="none" stroke="#A0D2F4" stroke-width="7" stroke-miterlimit="10" x1="328.8" y1="16.5" x2="328.8" y2="71.5"/>
			</g>
			<g>
				<line fill="none" stroke="#A0D2F4" stroke-width="7" stroke-miterlimit="10" x1="313.8" y1="12.5" x2="313.8" y2="75.5"/>
			</g>
			<g>
				<line fill="none" stroke="#A0D2F4" stroke-width="7" stroke-miterlimit="10" x1="298.8" y1="12.5" x2="298.8" y2="75.5"/>
			</g>
			<g>
				<line fill="none" stroke="#A0D2F4" stroke-width="7" stroke-miterlimit="10" x1="283.8" y1="12.5" x2="283.8" y2="75.5"/>
			</g>
			<g>
				<line fill="none" stroke="#A0D2F4" stroke-width="7" stroke-miterlimit="10" x1="268.8" y1="16.5" x2="268.8" y2="71.5"/>
			</g>
		</g>
	</g>
	<g>
		<g>
			<g>
				<line fill="none" stroke="#A0D2F4" stroke-width="7" stroke-miterlimit="10" x1="229.7" y1="16.5" x2="229.7" y2="71.5"/>
			</g>
			<g>
				<line fill="none" stroke="#A0D2F4" stroke-width="7" stroke-miterlimit="10" x1="214.7" y1="12.5" x2="214.7" y2="75.5"/>
			</g>
			<g>
				<line fill="none" stroke="#A0D2F4" stroke-width="7" stroke-miterlimit="10" x1="199.7" y1="12.5" x2="199.7" y2="75.5"/>
			</g>
			<g>
				<line fill="none" stroke="#A0D2F4" stroke-width="7" stroke-miterlimit="10" x1="184.7" y1="12.5" x2="184.7" y2="75.5"/>
			</g>
			<g>
				<line fill="none" stroke="#A0D2F4" stroke-width="7" stroke-miterlimit="10" x1="169.7" y1="16.5" x2="169.7" y2="71.5"/>
			</g>
		</g>
	</g>
	<g>
		<g>
			<g>
				<line fill="none" stroke="#A0D2F4" stroke-width="7" stroke-miterlimit="10" x1="130.6" y1="16.5" x2="130.6" y2="71.5"/>
			</g>
			<g>
				<line fill="none" stroke="#A0D2F4" stroke-width="7" stroke-miterlimit="10" x1="115.6" y1="12.5" x2="115.6" y2="75.5"/>
			</g>
			<g>
				<line fill="none" stroke="#A0D2F4" stroke-width="7" stroke-miterlimit="10" x1="100.6" y1="12.5" x2="100.6" y2="75.5"/>
			</g>
			<g>
				<line fill="none" stroke="#A0D2F4" stroke-width="7" stroke-miterlimit="10" x1="85.6" y1="12.5" x2="85.6" y2="75.5"/>
			</g>
			<g>
				<line fill="none" stroke="#A0D2F4" stroke-width="7" stroke-miterlimit="10" x1="70.6" y1="16.5" x2="70.6" y2="71.5"/>
			</g>
		</g>
	</g>
	<g>
		<g>
			<g>
				<line fill="none" stroke="#A0D2F4" stroke-width="7" stroke-miterlimit="10" x1="31.5" y1="16.5" x2="31.5" y2="71.5"/>
			</g>
			<g>
				<line fill="none" stroke="#A0D2F4" stroke-width="7" stroke-miterlimit="10" x1="16.5" y1="12.5" x2="16.5" y2="75.5"/>
			</g>
			<g>
				<line fill="none" stroke="#A0D2F4" stroke-width="7" stroke-miterlimit="10" x1="1.5" y1="12.5" x2="1.5" y2="75.5"/>
			</g>
		</g>
	</g>
</g>
<path fill="none" stroke="#4D4D4D" stroke-width="12" stroke-miterlimit="10" d="M0,7.5c49.899,0,49.899,74,99.798,74
	c49.898,0,49.898-74,99.796-74c49.899,0,49.899,74,99.799,74c49.902,0,49.902-74,99.804-74s49.902,74,99.804,74"/>
<path fill="none" stroke="#4D4D4D" stroke-width="12" stroke-miterlimit="10" d="M0,81.5c49.899,0,49.899-74,99.798-74
	c49.898,0,49.898,74,99.796,74c49.899,0,49.899-74,99.799-74c49.902,0,49.902,74,99.804,74s49.902-74,99.804-74"/>
</svg>
