<?xml version="1.0" encoding="utf-8"?>
<!-- Generator: Adobe Illustrator 16.0.0, SVG Export Plug-In . SVG Version: 6.00 Build 0)  -->
<!DOCTYPE svg PUBLIC "-//W3C//DTD SVG 1.1//EN" "http://www.w3.org/Graphics/SVG/1.1/DTD/svg11.dtd">
<svg version="1.1" id="Layer_1" xmlns="http://www.w3.org/2000/svg" xmlns:xlink="http://www.w3.org/1999/xlink" x="0px" y="0px"
	 width="1920px" height="567.5px" viewBox="0 232.5 1920 567.5" enable-background="new 0 232.5 1920 567.5" xml:space="preserve">
<g>
	<g>
		
			<line fill="none" stroke="#4D4D4D" stroke-width="5" stroke-linejoin="round" x1="-50.086" y1="145.587" x2="-43.171" y2="144.497"/>
		<polyline fill="none" stroke="#4D4D4D" stroke-width="5" stroke-linejoin="round" stroke-dasharray="15.0057,15.0057" points="
			-28.348,142.162 79.918,125.105 82.823,124.647 		"/>
		<polyline fill="none" stroke="#4D4D4D" stroke-width="5" stroke-linejoin="round" points="90.235,123.48 91.223,123.325 
			96.562,122.483 97,122.081 102.291,124.911 103.172,125.383 		"/>
		<polyline fill="none" stroke="#4D4D4D" stroke-width="5" stroke-linejoin="round" points="110.955,129.546 111.837,130.018 
			117.127,132.848 122.669,130.548 123.592,130.165 		"/>
		<polyline fill="none" stroke="#4D4D4D" stroke-width="5" stroke-linejoin="round" stroke-dasharray="14.9555,14.9555" points="
			137.405,124.432 264.628,71.624 268.628,69.964 		"/>
		<polyline fill="none" stroke="#4D4D4D" stroke-width="5" stroke-linejoin="round" points="275.534,67.098 276.458,66.714 
			282,64.415 282,64.556 282.499,64.21 288.256,65.898 289.216,66.18 		"/>
		<polyline fill="none" stroke="#4D4D4D" stroke-width="5" stroke-linejoin="round" points="303.96,70.505 304.919,70.786 
			310.677,72.476 315.037,68.354 315.764,67.667 		"/>
		<polyline fill="none" stroke="#4D4D4D" stroke-width="5" stroke-linejoin="round" stroke-dasharray="13.0283,13.0283" points="
			325.232,58.718 412.517,-23.786 415.179,-26.302 		"/>
		<polyline fill="none" stroke="#4D4D4D" stroke-width="5" stroke-linejoin="round" points="419.913,-30.776 420.64,-31.464 
			425,-35.585 425,-35.253 429.73,-31.563 430.52,-30.948 		"/>
		<polyline fill="none" stroke="#4D4D4D" stroke-width="5" stroke-linejoin="round" stroke-dasharray="17.2823,17.2823" points="
			444.148,-20.32 463.701,-5.073 464.591,-4.38 		"/>
		<polyline fill="none" stroke="#4D4D4D" stroke-width="5" stroke-linejoin="round" points="471.405,0.935 472.194,1.55 
			476.925,5.239 482.271,2.517 483.163,2.062 		"/>
		<polyline fill="none" stroke="#4D4D4D" stroke-width="5" stroke-linejoin="round" stroke-dasharray="13.7386,13.7386" points="
			495.405,-4.172 705.493,-111.177 709.642,-113.29 		"/>
		<polyline fill="none" stroke="#4D4D4D" stroke-width="5" stroke-linejoin="round" points="715.762,-116.408 716.653,-116.862 
			722,-119.585 722,-118.82 722.333,-119.253 726.88,-115.339 727.638,-114.687 		"/>
		<polyline fill="none" stroke="#4D4D4D" stroke-width="5" stroke-linejoin="round" stroke-dasharray="18.0663,18.0663" points="
			741.331,-102.9 760.955,-86.009 761.87,-85.222 		"/>
		<polyline fill="none" stroke="#4D4D4D" stroke-width="5" stroke-linejoin="round" points="768.715,-79.328 769.473,-78.677 
			774.021,-74.763 778.492,-78.765 779.237,-79.432 		"/>
		<polyline fill="none" stroke="#4D4D4D" stroke-width="5" stroke-linejoin="round" stroke-dasharray="13.6461,13.6461" points="
			789.407,-88.53 923.468,-208.478 926.698,-211.368 		"/>
		<polyline fill="none" stroke="#4D4D4D" stroke-width="5" stroke-linejoin="round" points="931.783,-215.918 932.528,-216.585 
			937,-220.585 941.441,-216.552 942.182,-215.879 		"/>
		<polyline fill="none" stroke="#4D4D4D" stroke-width="5" stroke-linejoin="round" stroke-dasharray="12.6649,12.6649" points="
			951.557,-207.363 1036.535,-130.173 1040.616,-126.466 		"/>
		<polyline fill="none" stroke="#4D4D4D" stroke-width="5" stroke-linejoin="round" points="1045.305,-122.209 1046.045,-121.536 
			1050.486,-117.503 1055.995,-119.88 1056.913,-120.276 		"/>
		<polyline fill="none" stroke="#4D4D4D" stroke-width="5" stroke-linejoin="round" stroke-dasharray="14.7242,14.7242" points="
			1070.432,-126.113 1168.265,-168.358 1171.814,-169.892 		"/>
		<polyline fill="none" stroke="#4D4D4D" stroke-width="5" stroke-linejoin="round" points="1178.573,-172.812 1179.491,-173.208 
			1185,-175.585 1185,-175.253 1188.939,-171.179 1189.635,-170.46 		"/>
		<polyline fill="none" stroke="#4D4D4D" stroke-width="5" stroke-linejoin="round" stroke-dasharray="12.5168,12.5168" points="
			1198.338,-161.463 1259.792,-97.925 1263.603,-93.985 		"/>
		<polyline fill="none" stroke="#4D4D4D" stroke-width="5" stroke-linejoin="round" points="1267.954,-89.487 1268.648,-88.77 
			1272.82,-84.456 1278.783,-85.12 1279.777,-85.23 		"/>
		<polyline fill="none" stroke="#4D4D4D" stroke-width="5" stroke-linejoin="round" stroke-dasharray="13.6344,13.6344" points="
			1293.328,-86.735 1471.963,-106.581 1476.268,-107.06 		"/>
		<polyline fill="none" stroke="#4D4D4D" stroke-width="5" stroke-linejoin="round" points="1483.043,-107.812 1484.037,-107.923 
			1490,-108.585 1490,-108.37 1490.333,-108.585 1495.102,-104.942 1495.896,-104.336 		"/>
		<polyline fill="none" stroke="#4D4D4D" stroke-width="5" stroke-linejoin="round" stroke-dasharray="12.5047,12.5047" points="
			1505.832,-96.744 1536.117,-73.604 1540.609,-70.173 		"/>
		<polyline fill="none" stroke="#4D4D4D" stroke-width="5" stroke-linejoin="round" points="1545.578,-66.377 1546.372,-65.771 
			1551.141,-62.128 1554.93,-66.779 1555.562,-67.556 		"/>
		<polyline fill="none" stroke="#4D4D4D" stroke-width="5" stroke-linejoin="round" stroke-dasharray="13.7239,13.7239" points="
			1564.229,-78.196 1678.488,-218.454 1681.245,-221.838 		"/>
		<polyline fill="none" stroke="#4D4D4D" stroke-width="5" stroke-linejoin="round" points="1685.579,-227.158 1686.211,-227.934 
			1690,-232.585 1690,-231.943 1690.333,-232.585 1695.085,-228.923 1695.877,-228.312 		"/>
		<polyline fill="none" stroke="#4D4D4D" stroke-width="5" stroke-linejoin="round" stroke-dasharray="14.5848,14.5848" points="
			1707.429,-219.407 1745.948,-189.714 1747.857,-188.242 		"/>
		<polyline fill="none" stroke="#4D4D4D" stroke-width="5" stroke-linejoin="round" points="1753.634,-183.791 1754.426,-183.181 
			1759.178,-179.518 1762.964,-184.171 1763.596,-184.947 		"/>
		<polyline fill="none" stroke="#4D4D4D" stroke-width="5" stroke-linejoin="round" stroke-dasharray="14.7266,14.7266" points="
			1772.889,-196.372 1914.631,-370.608 1916.937,-373.443 		"/>
		<polyline fill="none" stroke="#4D4D4D" stroke-width="5" stroke-linejoin="round" points="1921.583,-379.155 1922.214,-379.931 
			1926,-384.585 		"/>
	</g>
</g>
<line fill="none" stroke="#4D4D4D" stroke-width="5" stroke-linejoin="round" stroke-miterlimit="1" stroke-dasharray="14" x1="211.128" y1="536.084" x2="1439.566" y2="440.088"/>
</svg>
