<?xml version="1.0" encoding="utf-8"?>
<!-- Generator: Adobe Illustrator 16.0.0, SVG Export Plug-In . SVG Version: 6.00 Build 0)  -->
<!DOCTYPE svg PUBLIC "-//W3C//DTD SVG 1.1//EN" "http://www.w3.org/Graphics/SVG/1.1/DTD/svg11.dtd">
<svg version="1.1" id="Layer_1" xmlns="http://www.w3.org/2000/svg" xmlns:xlink="http://www.w3.org/1999/xlink" x="0px" y="0px"
	 width="518px" height="518px" viewBox="0 0 518 518" enable-background="new 0 0 518 518" xml:space="preserve">
<path fill="#E6E6E6" d="M518,308.479V207.526l-58.807-6.06c-4.326-15.624-10.521-30.516-18.148-44.445l35.706-46.181L405.34,39.457
	l-44.391,36.058c-14.277-8.168-29.617-14.691-45.746-19.342L308.052,0H207.101l-5.74,55.49
	c-16.587,4.563-32.348,11.109-47.016,19.375l-43.93-34.021L39.03,112.228l35.064,43.154c-8.105,14.494-14.317,30.047-18.817,46.404
	L0,207.526v100.952l55.961,7.144c4.648,16.13,11.069,31.462,19.238,45.739l-36.112,44.377l71.354,71.384l46.168-35.761
	c13.93,7.626,28.814,13.719,44.438,18.044L207.101,518h100.951l7.541-59.308c15.166-4.405,29.619-10.485,43.154-18.015
	l46.564,37.832l71.385-71.385l-36.736-47.438c7.662-13.683,14.06-28.311,18.521-43.669L518,308.479z M257.358,332.775
	c-41.422,0-74.999-33.579-74.999-75s33.577-75,74.999-75c41.421,0,75,33.579,75,75S298.779,332.775,257.358,332.775z"/>
</svg>
