<?xml version="1.0" encoding="utf-8"?>
<!-- Generator: Adobe Illustrator 16.0.0, SVG Export Plug-In . SVG Version: 6.00 Build 0)  -->
<!DOCTYPE svg PUBLIC "-//W3C//DTD SVG 1.1//EN" "http://www.w3.org/Graphics/SVG/1.1/DTD/svg11.dtd">
<svg version="1.1" id="Layer_1" xmlns="http://www.w3.org/2000/svg" xmlns:xlink="http://www.w3.org/1999/xlink" x="0px" y="0px"
	 width="500px" height="82px" viewBox="0 0 500 82" enable-background="new 0 0 500 82" xml:space="preserve">
<rect fill="#89DCA2" width="499" height="82"/>
<g>
	<g>
		<line fill="none" stroke="#4D4D4D" stroke-width="6" stroke-miterlimit="10" x1="483" y1="0" x2="483" y2="25"/>
	</g>
	<g>
		<line fill="none" stroke="#4D4D4D" stroke-width="6" stroke-miterlimit="10" x1="465" y1="0" x2="465" y2="25"/>
	</g>
	<g>
		<line fill="none" stroke="#4D4D4D" stroke-width="6" stroke-miterlimit="10" x1="447" y1="0" x2="447" y2="36"/>
	</g>
	<g>
		<line fill="none" stroke="#4D4D4D" stroke-width="6" stroke-miterlimit="10" x1="429" y1="0" x2="429" y2="25"/>
	</g>
	<g>
		<line fill="none" stroke="#4D4D4D" stroke-width="6" stroke-miterlimit="10" x1="411" y1="0" x2="411" y2="25"/>
	</g>
	<g>
		<line fill="none" stroke="#4D4D4D" stroke-width="6" stroke-miterlimit="10" x1="393" y1="0" x2="393" y2="25"/>
	</g>
	<g>
		<line fill="none" stroke="#4D4D4D" stroke-width="6" stroke-miterlimit="10" x1="375" y1="0" x2="375" y2="25"/>
	</g>
	<g>
		<line fill="none" stroke="#4D4D4D" stroke-width="6" stroke-miterlimit="10" x1="357" y1="0" x2="357" y2="48"/>
	</g>
	<g>
		<line fill="none" stroke="#4D4D4D" stroke-width="6" stroke-miterlimit="10" x1="339" y1="0" x2="339" y2="25"/>
	</g>
	<g>
		<line fill="none" stroke="#4D4D4D" stroke-width="6" stroke-miterlimit="10" x1="321" y1="0" x2="321" y2="25"/>
	</g>
	<g>
		<line fill="none" stroke="#4D4D4D" stroke-width="6" stroke-miterlimit="10" x1="303" y1="0" x2="303" y2="25"/>
	</g>
	<g>
		<line fill="none" stroke="#4D4D4D" stroke-width="6" stroke-miterlimit="10" x1="285" y1="0" x2="285" y2="25"/>
	</g>
	<g>
		<line fill="none" stroke="#4D4D4D" stroke-width="6" stroke-miterlimit="10" x1="267" y1="0" x2="267" y2="36"/>
	</g>
	<g>
		<line fill="none" stroke="#4D4D4D" stroke-width="6" stroke-miterlimit="10" x1="249" y1="0" x2="249" y2="25"/>
	</g>
	<g>
		<line fill="none" stroke="#4D4D4D" stroke-width="6" stroke-miterlimit="10" x1="231" y1="0" x2="231" y2="25"/>
	</g>
	<g>
		<line fill="none" stroke="#4D4D4D" stroke-width="6" stroke-miterlimit="10" x1="213" y1="0" x2="213" y2="25"/>
	</g>
	<g>
		<line fill="none" stroke="#4D4D4D" stroke-width="6" stroke-miterlimit="10" x1="195" y1="0" x2="195" y2="25"/>
	</g>
	<g>
		<line fill="none" stroke="#4D4D4D" stroke-width="6" stroke-miterlimit="10" x1="177" y1="0" x2="177" y2="48"/>
	</g>
	<g>
		<line fill="none" stroke="#4D4D4D" stroke-width="6" stroke-miterlimit="10" x1="159" y1="0" x2="159" y2="25"/>
	</g>
	<g>
		<line fill="none" stroke="#4D4D4D" stroke-width="6" stroke-miterlimit="10" x1="141" y1="0" x2="141" y2="25"/>
	</g>
	<g>
		<line fill="none" stroke="#4D4D4D" stroke-width="6" stroke-miterlimit="10" x1="123" y1="0" x2="123" y2="25"/>
	</g>
	<g>
		<line fill="none" stroke="#4D4D4D" stroke-width="6" stroke-miterlimit="10" x1="105" y1="0" x2="105" y2="25"/>
	</g>
	<g>
		<line fill="none" stroke="#4D4D4D" stroke-width="6" stroke-miterlimit="10" x1="87" y1="0" x2="87" y2="36"/>
	</g>
	<g>
		<line fill="none" stroke="#4D4D4D" stroke-width="6" stroke-miterlimit="10" x1="69" y1="0" x2="69" y2="25"/>
	</g>
	<g>
		<line fill="none" stroke="#4D4D4D" stroke-width="6" stroke-miterlimit="10" x1="51" y1="0" x2="51" y2="25"/>
	</g>
	<g>
		<line fill="none" stroke="#4D4D4D" stroke-width="6" stroke-miterlimit="10" x1="33" y1="0" x2="33" y2="25"/>
	</g>
	<g>
		<line fill="none" stroke="#4D4D4D" stroke-width="6" stroke-miterlimit="10" x1="15" y1="0" x2="15" y2="25"/>
	</g>
</g>
</svg>
