<?xml version="1.0" encoding="utf-8"?>
<!-- Generator: Adobe Illustrator 16.0.0, SVG Export Plug-In . SVG Version: 6.00 Build 0)  -->
<!DOCTYPE svg PUBLIC "-//W3C//DTD SVG 1.1//EN" "http://www.w3.org/Graphics/SVG/1.1/DTD/svg11.dtd">
<svg version="1.1" id="Layer_1" xmlns="http://www.w3.org/2000/svg" xmlns:xlink="http://www.w3.org/1999/xlink" x="0px" y="0px"
	 width="1157.942px" height="463.389px" viewBox="0 0 1157.942 463.389" enable-background="new 0 0 1157.942 463.389"
	 xml:space="preserve">
<g id="Keyboard_2_">
	<g>
		<g>
			<path id="XMLID_1_" fill="#E2E2E2" d="M862.348,262c0,5.523-4.477,10-10,10H306.349c-5.523,0-10-4.477-10-10V11
				c0-5.523,4.477-10,10-10h545.999c5.523,0,10,4.477,10,10V262z"/>
		</g>
	</g>
	<g id="Keyboard">
		<g>
			<g>
				<path fill="#FFFFFF" d="M366.721,138c0-2.75-2.25-5-5-5h-49c-2.75,0-5,2.25-5,5v26c0,2.75,2.25,5,5,5h49c2.75,0,5-2.25,5-5V138z
					"/>
			</g>
			<g>
				<path fill="#FFFFFF" d="M848.971,138c0-2.75-2.25-5-5-5h-55c-2.75,0-5,2.25-5,5v26c0,2.75,2.25,5,5,5h55c2.75,0,5-2.25,5-5V138z
					"/>
			</g>
			<g>
				<g>
					<path fill="#FFFFFF" d="M771.971,138c0-2.75-2.25-5-5-5h-24.5c-2.75,0-5,2.25-5,5v26c0,2.75,2.25,5,5,5h24.5c2.75,0,5-2.25,5-5
						V138z"/>
				</g>
				<g>
					<path fill="#FFFFFF" d="M726.971,138c0-2.75-2.25-5-5-5h-24.5c-2.75,0-5,2.25-5,5v26c0,2.75,2.25,5,5,5h24.5c2.75,0,5-2.25,5-5
						V138z"/>
				</g>
				<g>
					<path fill="#FFFFFF" d="M681.971,138c0-2.75-2.25-5-5-5h-24.5c-2.75,0-5,2.25-5,5v26c0,2.75,2.25,5,5,5h24.5c2.75,0,5-2.25,5-5
						V138z"/>
				</g>
				<g>
					<path fill="#FFFFFF" d="M636.971,138c0-2.75-2.25-5-5-5h-24.5c-2.75,0-5,2.25-5,5v26c0,2.75,2.25,5,5,5h24.5c2.75,0,5-2.25,5-5
						V138z"/>
				</g>
				<g>
					<path fill="#FFFFFF" d="M591.971,138c0-2.75-2.25-5-5-5h-24.5c-2.75,0-5,2.25-5,5v26c0,2.75,2.25,5,5,5h24.5c2.75,0,5-2.25,5-5
						V138z"/>
				</g>
				<g>
					<path fill="#FFFFFF" d="M546.971,138c0-2.75-2.25-5-5-5h-24.5c-2.75,0-5,2.25-5,5v26c0,2.75,2.25,5,5,5h24.5c2.75,0,5-2.25,5-5
						V138z"/>
				</g>
				<g>
					<path fill="#FFFFFF" d="M501.971,138c0-2.75-2.25-5-5-5h-24.5c-2.75,0-5,2.25-5,5v26c0,2.75,2.25,5,5,5h24.5c2.75,0,5-2.25,5-5
						V138z"/>
				</g>
				<g>
					<path fill="#FFFFFF" d="M456.971,138c0-2.75-2.25-5-5-5h-24.5c-2.75,0-5,2.25-5,5v26c0,2.75,2.25,5,5,5h24.5c2.75,0,5-2.25,5-5
						V138z"/>
				</g>
				<g>
					<path fill="#FFFFFF" d="M411.971,138c0-2.75-2.25-5-5-5h-24.5c-2.75,0-5,2.25-5,5v26c0,2.75,2.25,5,5,5h24.5c2.75,0,5-2.25,5-5
						V138z"/>
				</g>
			</g>
		</g>
		<g>
			<g>
				<path fill="#FFFFFF" d="M749.221,184c0-2.75-2.25-5-5-5h-24.5c-2.75,0-5,2.25-5,5v26c0,2.75,2.25,5,5,5h24.5c2.75,0,5-2.25,5-5
					V184z"/>
			</g>
			<g>
				<path fill="#FFFFFF" d="M704.221,184c0-2.75-2.25-5-5-5h-24.5c-2.75,0-5,2.25-5,5v26c0,2.75,2.25,5,5,5h24.5c2.75,0,5-2.25,5-5
					V184z"/>
			</g>
			<g>
				<path fill="#FFFFFF" d="M659.221,184c0-2.75-2.25-5-5-5h-24.5c-2.75,0-5,2.25-5,5v26c0,2.75,2.25,5,5,5h24.5c2.75,0,5-2.25,5-5
					V184z"/>
			</g>
			<g>
				<path fill="#FFFFFF" d="M614.221,184c0-2.75-2.25-5-5-5h-24.5c-2.75,0-5,2.25-5,5v26c0,2.75,2.25,5,5,5h24.5c2.75,0,5-2.25,5-5
					V184z"/>
			</g>
			<g>
				<path fill="#FFFFFF" d="M569.221,184c0-2.75-2.25-5-5-5h-24.5c-2.75,0-5,2.25-5,5v26c0,2.75,2.25,5,5,5h24.5c2.75,0,5-2.25,5-5
					V184z"/>
			</g>
			<g>
				<path fill="#FFFFFF" d="M524.221,184c0-2.75-2.25-5-5-5h-24.5c-2.75,0-5,2.25-5,5v26c0,2.75,2.25,5,5,5h24.5c2.75,0,5-2.25,5-5
					V184z"/>
			</g>
			<g>
				<path fill="#FFFFFF" d="M479.221,184c0-2.75-2.25-5-5-5h-24.5c-2.75,0-5,2.25-5,5v26c0,2.75,2.25,5,5,5h24.5c2.75,0,5-2.25,5-5
					V184z"/>
			</g>
			<g>
				<path fill="#FFFFFF" d="M434.221,184c0-2.75-2.25-5-5-5h-24.5c-2.75,0-5,2.25-5,5v26c0,2.75,2.25,5,5,5h24.5c2.75,0,5-2.25,5-5
					V184z"/>
			</g>
		</g>
		<g>
			<g>
				<path fill="#FFFFFF" d="M388.721,184c0-2.75-2.25-5-5-5h-71c-2.75,0-5,2.25-5,5v26c0,2.75,2.25,5,5,5h71c2.75,0,5-2.25,5-5V184z
					"/>
			</g>
			<g>
				<path fill="#FFFFFF" d="M848.971,184c0-2.75-2.25-5-5-5h-78.25c-2.75,0-5,2.25-5,5v26c0,2.75,2.25,5,5,5h78.25
					c2.75,0,5-2.25,5-5V184z"/>
			</g>
		</g>
		<g id="_x32_">
			<g>
				<path fill="#FFFFFF" d="M849.221,91c0-2.75-2.25-5-5-5h-24.5c-2.75,0-5,2.25-5,5v26c0,2.75,2.25,5,5,5h24.5c2.75,0,5-2.25,5-5
					V91z"/>
			</g>
			<g>
				<path fill="#FFFFFF" d="M804.221,91c0-2.75-2.25-5-5-5h-24.5c-2.75,0-5,2.25-5,5v26c0,2.75,2.25,5,5,5h24.5c2.75,0,5-2.25,5-5
					V91z"/>
			</g>
			<g>
				<path fill="#FFFFFF" d="M759.221,91c0-2.75-2.25-5-5-5h-24.5c-2.75,0-5,2.25-5,5v26c0,2.75,2.25,5,5,5h24.5c2.75,0,5-2.25,5-5
					V91z"/>
			</g>
			<g>
				<path fill="#FFFFFF" d="M714.221,91c0-2.75-2.25-5-5-5h-24.5c-2.75,0-5,2.25-5,5v26c0,2.75,2.25,5,5,5h24.5c2.75,0,5-2.25,5-5
					V91z"/>
			</g>
			<g>
				<path fill="#FFFFFF" d="M669.221,91c0-2.75-2.25-5-5-5h-24.5c-2.75,0-5,2.25-5,5v26c0,2.75,2.25,5,5,5h24.5c2.75,0,5-2.25,5-5
					V91z"/>
			</g>
			<g>
				<path fill="#FFFFFF" d="M624.221,91c0-2.75-2.25-5-5-5h-24.5c-2.75,0-5,2.25-5,5v26c0,2.75,2.25,5,5,5h24.5c2.75,0,5-2.25,5-5
					V91z"/>
			</g>
			<g>
				<path fill="#FFFFFF" d="M579.221,91c0-2.75-2.25-5-5-5h-24.5c-2.75,0-5,2.25-5,5v26c0,2.75,2.25,5,5,5h24.5c2.75,0,5-2.25,5-5
					V91z"/>
			</g>
			<g>
				<path fill="#FFFFFF" d="M534.221,91c0-2.75-2.25-5-5-5h-24.5c-2.75,0-5,2.25-5,5v26c0,2.75,2.25,5,5,5h24.5c2.75,0,5-2.25,5-5
					V91z"/>
			</g>
			<g>
				<path fill="#FFFFFF" d="M489.221,91c0-2.75-2.25-5-5-5h-24.5c-2.75,0-5,2.25-5,5v26c0,2.75,2.25,5,5,5h24.5c2.75,0,5-2.25,5-5
					V91z"/>
			</g>
			<g>
				<path fill="#FFFFFF" d="M444.221,91c0-2.75-2.25-5-5-5h-24.5c-2.75,0-5,2.25-5,5v26c0,2.75,2.25,5,5,5h24.5c2.75,0,5-2.25,5-5
					V91z"/>
			</g>
			<g>
				<path fill="#FFFFFF" d="M399.221,91c0-2.75-2.25-5-5-5h-24.5c-2.75,0-5,2.25-5,5v26c0,2.75,2.25,5,5,5h24.5c2.75,0,5-2.25,5-5
					V91z"/>
			</g>
			<g>
				<path fill="#FFFFFF" d="M354.721,91c0-2.75-2.25-5-5-5h-37c-2.75,0-5,2.25-5,5v26c0,2.75,2.25,5,5,5h37c2.75,0,5-2.25,5-5V91z"
					/>
			</g>
		</g>
		<g id="_x32__1_">
			<g>
				<path fill="#FFFFFF" d="M307.721,43c0-2.75,2.25-5,5-5h50.5c2.75,0,5,2.25,5,5v26c0,2.75-2.25,5-5,5h-50.5c-2.75,0-5-2.25-5-5
					V43z"/>
			</g>
			<g>
				<path fill="#FFFFFF" d="M380.471,43c0-2.75,2.25-5,5-5h24.5c2.75,0,5,2.25,5,5v26c0,2.75-2.25,5-5,5h-24.5c-2.75,0-5-2.25-5-5
					V43z"/>
			</g>
			<g>
				<path fill="#FFFFFF" d="M425.471,43c0-2.75,2.25-5,5-5h24.5c2.75,0,5,2.25,5,5v26c0,2.75-2.25,5-5,5h-24.5c-2.75,0-5-2.25-5-5
					V43z"/>
			</g>
			<g>
				<path fill="#FFFFFF" d="M470.471,43c0-2.75,2.25-5,5-5h24.5c2.75,0,5,2.25,5,5v26c0,2.75-2.25,5-5,5h-24.5c-2.75,0-5-2.25-5-5
					V43z"/>
			</g>
			<g>
				<path fill="#FFFFFF" d="M515.471,43c0-2.75,2.25-5,5-5h24.5c2.75,0,5,2.25,5,5v26c0,2.75-2.25,5-5,5h-24.5c-2.75,0-5-2.25-5-5
					V43z"/>
			</g>
			<g>
				<path fill="#FFFFFF" d="M560.471,43c0-2.75,2.25-5,5-5h24.5c2.75,0,5,2.25,5,5v26c0,2.75-2.25,5-5,5h-24.5c-2.75,0-5-2.25-5-5
					V43z"/>
			</g>
			<g>
				<path fill="#FFFFFF" d="M605.471,43c0-2.75,2.25-5,5-5h24.5c2.75,0,5,2.25,5,5v26c0,2.75-2.25,5-5,5h-24.5c-2.75,0-5-2.25-5-5
					V43z"/>
			</g>
			<g>
				<path fill="#FFFFFF" d="M650.471,43c0-2.75,2.25-5,5-5h24.5c2.75,0,5,2.25,5,5v26c0,2.75-2.25,5-5,5h-24.5c-2.75,0-5-2.25-5-5
					V43z"/>
			</g>
			<g>
				<path fill="#FFFFFF" d="M695.471,43c0-2.75,2.25-5,5-5h24.5c2.75,0,5,2.25,5,5v26c0,2.75-2.25,5-5,5h-24.5c-2.75,0-5-2.25-5-5
					V43z"/>
			</g>
			<g>
				<path fill="#FFFFFF" d="M740.471,43c0-2.75,2.25-5,5-5h24.5c2.75,0,5,2.25,5,5v26c0,2.75-2.25,5-5,5h-24.5c-2.75,0-5-2.25-5-5
					V43z"/>
			</g>
			<g>
				<path fill="#FFFFFF" d="M786.971,43c0-2.75,2.25-5,5-5h52.25c2.75,0,5,2.25,5,5v26c0,2.75-2.25,5-5,5h-52.25c-2.75,0-5-2.25-5-5
					V43z"/>
			</g>
		</g>
		<g>
			<g>
				<path fill="#FFFFFF" d="M612.721,230c0-2.75-2.25-5-5-5h-175c-2.75,0-5,2.25-5,5v26c0,2.75,2.25,5,5,5h175c2.75,0,5-2.25,5-5
					V230z"/>
			</g>
			<g>
				<path fill="#FFFFFF" d="M668.721,230c0-2.75-2.25-5-5-5h-33c-2.75,0-5,2.25-5,5v26c0,2.75,2.25,5,5,5h33c2.75,0,5-2.25,5-5V230z
					"/>
			</g>
			<g>
				<path fill="#FFFFFF" d="M416.721,230c0-2.75-2.25-5-5-5h-25c-2.75,0-5,2.25-5,5v26c0,2.75,2.25,5,5,5h25c2.75,0,5-2.25,5-5V230z
					"/>
			</g>
			<g>
				<path fill="#FFFFFF" d="M332.721,230c0-2.75-2.25-5-5-5h-15c-2.75,0-5,2.25-5,5v26c0,2.75,2.25,5,5,5h15c2.75,0,5-2.25,5-5V230z
					"/>
			</g>
			<g>
				<path fill="#FFFFFF" d="M370.721,230c0-2.75-2.25-5-5-5h-17c-2.75,0-5,2.25-5,5v26c0,2.75,2.25,5,5,5h17c2.75,0,5-2.25,5-5V230z
					"/>
			</g>
			<g>
				<path fill="#FFFFFF" d="M722.721,250c0-2.75-2.25-5-5-5h-33c-2.75,0-5,2.25-5,5v6c0,2.75,2.25,5,5,5h33c2.75,0,5-2.25,5-5V250z"
					/>
			</g>
			<g>
				<path fill="#FFFFFF" d="M774.721,250c0-2.75-2.25-5-5-5h-33c-2.75,0-5,2.25-5,5v6c0,2.75,2.25,5,5,5h33c2.75,0,5-2.25,5-5V250z"
					/>
			</g>
			<g>
				<path fill="#FFFFFF" d="M826.721,250c0-2.75-2.25-5-5-5h-33c-2.75,0-5,2.25-5,5v6c0,2.75,2.25,5,5,5h33c2.75,0,5-2.25,5-5V250z"
					/>
			</g>
			<g>
				<path fill="#FFFFFF" d="M774.721,230c0-2.75-2.25-5-5-5h-33c-2.75,0-5,2.25-5,5v6c0,2.75,2.25,5,5,5h33c2.75,0,5-2.25,5-5V230z"
					/>
			</g>
		</g>
	</g>
</g>
<path fill="#FFFFFF" d="M1108.734,222.93c12.354,32.37-3.872,68.626-36.243,80.978l-24.995,9.539
	c-32.371,12.354-68.626-3.872-80.978-36.242l-46.053-120.668c-12.354-32.37,3.872-68.625,36.241-80.978l24.997-9.54
	c32.369-12.354,68.624,3.873,80.979,36.243L1108.734,222.93z"/>
<g opacity="0.05">
	<path fill="#F4F7F8" d="M252.018,303.931l9.921-8.401c7.137-6.04,8.032-16.823,1.99-23.959l-21.713-25.647
		c27.802-37.201,27.36-89.947-3.928-126.905C201.89,76.023,137.529,70.676,94.533,107.075
		C51.54,143.474,46.192,207.835,82.591,250.83c31.057,36.686,82.468,45.955,123.597,25.277l21.87,25.833
		C234.1,309.076,244.882,309.97,252.018,303.931z"/>
</g>
<g>
	
		<linearGradient id="SVGID_1_" gradientUnits="userSpaceOnUse" x1="445.521" y1="212.4595" x2="521.9102" y2="-220.7656" gradientTransform="matrix(1 0 0 -1 -171 322.6201)">
		<stop  offset="0" style="stop-color:#FFFFFF"/>
		<stop  offset="0" style="stop-color:#FFFFFF;stop-opacity:0.9685"/>
		<stop  offset="0.1099" style="stop-color:#C3C3C3;stop-opacity:0.7956"/>
		<stop  offset="0.2475" style="stop-color:#7E7E7E;stop-opacity:0.5792"/>
		<stop  offset="0.3719" style="stop-color:#484848;stop-opacity:0.3834"/>
		<stop  offset="0.4786" style="stop-color:#212121;stop-opacity:0.2156"/>
		<stop  offset="0.5634" style="stop-color:#090909;stop-opacity:0.0822"/>
		<stop  offset="0.6157" style="stop-color:#000000;stop-opacity:0"/>
	</linearGradient>
	<polygon opacity="0.1" fill="url(#SVGID_1_)" enable-background="new    " points="664.348,488.119 17.589,485.888 44.681,192.001 
		224.289,119.018 	"/>
	<path fill="#FFFFFF" d="M238.018,303.931l9.921-8.401c7.137-6.04,8.032-16.823,1.99-23.959l-21.713-25.647
		c27.802-37.201,27.36-89.947-3.928-126.905C187.89,76.023,123.529,70.676,80.533,107.075
		C37.54,143.474,32.192,207.835,68.591,250.83c31.057,36.686,82.468,45.955,123.597,25.277l21.87,25.833
		C220.1,309.076,230.882,309.97,238.018,303.931z"/>
</g>
<circle fill="#4D4D4D" cx="146.31" cy="185.511" r="81.872"/>
<path opacity="0.1" enable-background="new    " d="M156.79,266.708c-8.93,1.152-17.709,0.82-26.089-0.806
	c70.647,6.097,127.314-100.57,41.003-158.246c29.082,9.508,51.625,35.007,55.803,67.374
	C233.296,219.875,201.634,260.921,156.79,266.708z"/>
</svg>
