<?xml version="1.0" encoding="utf-8"?>
<!-- Generator: Adobe Illustrator 16.0.0, SVG Export Plug-In . SVG Version: 6.00 Build 0)  -->
<!DOCTYPE svg PUBLIC "-//W3C//DTD SVG 1.1//EN" "http://www.w3.org/Graphics/SVG/1.1/DTD/svg11.dtd">
<svg version="1.1" id="Layer_1" xmlns="http://www.w3.org/2000/svg" xmlns:xlink="http://www.w3.org/1999/xlink" x="0px" y="0px"
	 width="345.314px" height="190.185px" viewBox="-103.499 133.911 345.314 190.185"
	 enable-background="new -103.499 133.911 345.314 190.185" xml:space="preserve">
<rect x="100.04" y="40.854" display="none" fill="none" stroke="#CCCCCC" stroke-width="2" width="265.112" height="139.975"/>
<path display="none" fill="none" stroke="#222222" stroke-width="2" d="M372.77,27.001H92.883c-3.3,0-6,2.7-6,6v187.687
	c0,3.3,2.7,6,6,6H372.77c3.301,0,6-2.7,6-6V33.001C378.77,29.701,376.068,27.001,372.77,27.001z"/>
<path display="none" fill="none" stroke="#222222" stroke-width="2" d="M372.77,90.168H92.883c-3.3,0-6,2.7-6,6v187.688
	c0,3.301,2.7,6,6,6H372.77c3.301,0,6-2.699,6-6V96.168C378.77,92.868,376.068,90.168,372.77,90.168z"/>
<path fill="none" stroke="#333333" stroke-width="13" stroke-miterlimit="10" d="M195.835,140.744H-58.096
	c-1.798,0-3.27,1.382-3.27,3.071v88.034v69.608h260.47v-72.68v-84.962C199.104,142.126,197.633,140.744,195.835,140.744z"/>
<g>
	<path fill="#CCCCCC" d="M241.815,312.659c0,0,0-1.312,0-2.914c0-1.604-1.8-2.915-4-2.915H-99.356c-2.2,0-4,1.697-4,3.772
		c0,2.074,0,3.771,0,3.771"/>
</g>
<polyline fill="#CCCCCC" points="-103.356,312.316 -103.356,317.802 241.815,317.802 241.815,310.601 "/>
<path fill="#AAAAAA" d="M208.162,324.095H-68.407c0,0-18.553,0.719-35.093-6.293h344.74
	C225.852,324.095,208.162,324.095,208.162,324.095z"/>
<g>
	<path fill="#AAAAAA" d="M95.85,306.83c0,0-0.463,1.055-1.029,2.343s-2.379,2.343-4.029,2.343h-46.58
		c-1.65,0-3.463-1.055-4.029-2.343s-1.029-2.343-1.029-2.343"/>
</g>
</svg>
