<?xml version="1.0" encoding="utf-8"?>
<!-- Generator: Adobe Illustrator 16.0.0, SVG Export Plug-In . SVG Version: 6.00 Build 0)  -->
<!DOCTYPE svg PUBLIC "-//W3C//DTD SVG 1.1//EN" "http://www.w3.org/Graphics/SVG/1.1/DTD/svg11.dtd">
<svg version="1.1" id="Layer_1" xmlns="http://www.w3.org/2000/svg" xmlns:xlink="http://www.w3.org/1999/xlink" x="0px" y="0px"
	 width="400px" height="400px" viewBox="0 0 400 400" enable-background="new 0 0 400 400" xml:space="preserve">
<g>
	<rect x="134" y="164" fill="#ECCEAC" width="34" height="34"/>
</g>
<g>
	<rect x="76" y="271" fill="#A0D2F4" width="139" height="130"/>
</g>
<g>
	<path fill="#ECCEAC" d="M157.038,388.3c-32.555-2.035-57.893-13.412-75.308-33.815c-27.514-32.235-23.787-74.911-23.615-76.711
		l34.045,3.253L75.138,279.4l17.03,1.545c-0.026,0.303-2.382,30.509,15.75,51.54c11.172,12.96,28.417,20.254,51.253,21.682
		L157.038,388.3z"/>
</g>
<g>
	<defs>
		<path id="SVGID_1_" d="M58.039,281.934c0-52,42.155-94.155,94.156-94.155c52,0,94.155,42.155,94.155,94.155"/>
	</defs>
	<use xlink:href="#SVGID_1_"  overflow="visible" fill="#A0D2F4"/>
	<clipPath id="SVGID_2_">
		<use xlink:href="#SVGID_1_"  overflow="visible"/>
	</clipPath>
	<g clip-path="url(#SVGID_2_)">
		<ellipse fill="#ECCEAC" cx="152.317" cy="179.017" rx="38.546" ry="34.517"/>
	</g>
</g>
<g>
	<g>
		<circle fill="#ECCEAC" cx="210.46" cy="91.092" r="12.667"/>
	</g>
	<g>
		<circle fill="#ECCEAC" cx="92.66" cy="91.092" r="12.667"/>
	</g>
	<g>
		<defs>
			<path id="SVGID_3_" d="M213,110.512c0,35.53-27.56,64.6-61,64.6c-33.439,0-61-29.07-61-64.6V72.934c0-35.53,27.561-64.6,61-64.6
				c33.44,0,61,29.07,61,64.6V110.512z"/>
		</defs>
		<use xlink:href="#SVGID_3_"  overflow="visible" fill="#ECCEAC"/>
		<clipPath id="SVGID_4_">
			<use xlink:href="#SVGID_3_"  overflow="visible"/>
		</clipPath>
		<g clip-path="url(#SVGID_4_)">
			<defs>
				<path id="SVGID_5_" d="M192.52,123.6L213,84.333v26.178c0,35.53-27.559,64.6-61,64.6c-33.44,0-61-29.07-61-64.6V84.333
					l30.493,39.267C156.326,95.258,192.52,123.6,192.52,123.6z"/>
			</defs>
			<use xlink:href="#SVGID_5_"  overflow="visible" fill="#755E4C"/>
			<clipPath id="SVGID_6_">
				<use xlink:href="#SVGID_5_"  overflow="visible"/>
			</clipPath>
		</g>
	</g>
	<g>
		<g>
			<circle fill="#595959" cx="128.549" cy="81.381" r="5.067"/>
		</g>
		<g>
			<circle fill="#595959" cx="184.282" cy="81.381" r="5.067"/>
		</g>
	</g>
	<g>
		<ellipse fill="#ECCEAC" cx="156.671" cy="108.73" rx="13.766" ry="11.519"/>
	</g>
</g>
<g>
	<rect x="154" y="277" fill="#E6E6E6" width="175" height="124"/>
</g>
<g>
	<circle fill="#FFFFFF" cx="242.549" cy="342.312" r="15.2"/>
</g>
</svg>
