<?xml version="1.0" encoding="utf-8"?>
<!-- Generator: Adobe Illustrator 16.0.0, SVG Export Plug-In . SVG Version: 6.00 Build 0)  -->
<!DOCTYPE svg PUBLIC "-//W3C//DTD SVG 1.1//EN" "http://www.w3.org/Graphics/SVG/1.1/DTD/svg11.dtd">
<svg version="1.1" id="Layer_1" xmlns="http://www.w3.org/2000/svg" xmlns:xlink="http://www.w3.org/1999/xlink" x="0px" y="0px"
	 width="2880px" height="800px" viewBox="0 0 2880 800" enable-background="new 0 0 2880 800" xml:space="preserve">
<g id="Layer_1_1_">
	<g>
		<polygon fill="#808080" points="299.323,844.5 442.323,844.5 478.323,608 162.178,825.96 		"/>
		<g>
			<polygon fill="#808080" points="902.322,629 1103.322,629 1103.322,366 835.658,502.331 			"/>
			<polygon fill="#808080" points="1149.322,513 1318.322,513 1318.322,265 1115.656,446.331 			"/>
			<polygon fill="#808080" points="1433.322,464 1566.322,464 1566.322,310 1404.99,379.664 			"/>
			<polygon fill="#808080" points="1607.322,546 1871.322,546 1871.322,377 1607.322,406.331 			"/>
			<polygon fill="#808080" points="1919.322,512 2071.322,512 2071.322,253 1911.656,448.998 			"/>
			<polygon fill="#808080" points="2149.322,406 2307.322,406 2307.322,101 2102.324,352.998 			"/>
			<polygon fill="#808080" points="695.322,676 806.322,676 806.322,450 666.324,582.33 			"/>
			<polygon fill="#808080" points="517.323,721 663.322,721 663.322,550 472.991,629 			"/>
			<polygon fill="#4D4D4D" points="2307.322,101 2199.656,351.667 2071.656,253 1968.787,451.21 1871.656,377 1723.656,472.999 
				1566.322,310.333 1478.322,410.333 1318.322,265 1208.99,456.998 1103.656,366.333 951.656,563.666 806.322,450.333 715.656,565 
				663.822,549.796 535.656,638.333 478.323,607.667 317.823,810.5 375.323,808 2305.322,808 2717.822,806.5 			"/>
		</g>
	</g>
</g>
</svg>
