<?xml version="1.0" encoding="utf-8"?>
<!-- Generator: Adobe Illustrator 16.0.0, SVG Export Plug-In . SVG Version: 6.00 Build 0)  -->
<!DOCTYPE svg PUBLIC "-//W3C//DTD SVG 1.1//EN" "http://www.w3.org/Graphics/SVG/1.1/DTD/svg11.dtd">
<svg version="1.1" id="Layer_1" xmlns="http://www.w3.org/2000/svg" xmlns:xlink="http://www.w3.org/1999/xlink" x="0px" y="0px"
	 width="400px" height="327.411px" viewBox="0 0 400 327.411" enable-background="new 0 0 400 327.411" xml:space="preserve">
<rect x="11.5" y="12.206" fill="#A0D2F4" width="374" height="206"/>
<g>
	<g>
		<path id="XMLID_1_" fill="#E2E2E2" d="M272.114,327.487H128.846c-2.945,0-3.802-1.01-4.003-1.857
			c-0.204-0.863,0.121-2.176,2.829-3.535l18.872-9.902c3.169-1.594,6.199-5.549,6.77-8.824l5.472-30.88h83.298l5.105,31.017
			c0.525,3.256,3.465,7.049,6.688,8.637L273.275,322c2.863,1.412,3.008,2.848,2.838,3.578
			C275.947,326.29,275.206,327.487,272.114,327.487z"/>
	</g>
	<g>
		<g>
			<defs>
				<path id="SVGID_1_" d="M272.114,327.487H128.846c-2.945,0-3.802-1.01-4.003-1.857c-0.204-0.863,0.121-2.176,2.829-3.535
					l18.872-9.902c3.169-1.594,6.199-5.549,6.77-8.824l5.472-30.88h83.298l5.105,31.017c0.525,3.256,3.465,7.049,6.688,8.637
					L273.275,322c2.863,1.412,3.008,2.848,2.838,3.578C275.947,326.29,275.206,327.487,272.114,327.487z"/>
			</defs>
			<clipPath id="SVGID_2_">
				<use xlink:href="#SVGID_1_"  overflow="visible"/>
			</clipPath>
			<rect x="151" y="262.487" opacity="0.05" clip-path="url(#SVGID_2_)" enable-background="new    " width="105" height="27"/>
		</g>
	</g>
</g>
<rect x="100.04" y="40.854" display="none" fill="none" stroke="#CCCCCC" stroke-width="2" width="265.112" height="139.975"/>
<path display="none" fill="none" stroke="#222222" stroke-width="2" d="M372.77,27.001H92.883c-3.3,0-6,2.7-6,6v187.687
	c0,3.3,2.7,6,6,6H372.77c3.301,0,6-2.7,6-6V33.001C378.77,29.701,376.068,27.001,372.77,27.001z"/>
<path display="none" fill="none" stroke="#222222" stroke-width="2" d="M372.77,90.168H92.883c-3.3,0-6,2.7-6,6v187.688
	c0,3.301,2.7,6,6,6H372.77c3.301,0,6-2.699,6-6V96.168C378.77,92.868,376.068,90.168,372.77,90.168z"/>
<path fill="#E2E2E2" d="M399.591,265.155c0,4.518-3.694,8.215-8.214,8.215H8.214c-4.517,0-8.214-3.697-8.214-8.215v-36.551h399.591
	V265.155z"/>
<path fill="#333333" d="M391.377,0.001H285.13c1.318,6.695,2.858,13.013,4.595,18.967h91.226v191.625H18.012V18.967h319.739
	c-1.024-6.181-2.204-12.5-3.558-18.967H8.214C3.697,0,0,3.697,0,8.214v220.391h399.591V8.215
	C399.591,3.698,395.893,0.001,391.377,0.001z"/>
</svg>
