<?xml version="1.0" encoding="utf-8"?>
<!-- Generator: Adobe Illustrator 16.0.0, SVG Export Plug-In . SVG Version: 6.00 Build 0)  -->
<!DOCTYPE svg PUBLIC "-//W3C//DTD SVG 1.1//EN" "http://www.w3.org/Graphics/SVG/1.1/DTD/svg11.dtd">
<svg version="1.1" id="Layer_1" xmlns="http://www.w3.org/2000/svg" xmlns:xlink="http://www.w3.org/1999/xlink" x="0px" y="0px"
	 width="50px" height="50px" viewBox="557.25 -3.25 50 50" enable-background="new 557.25 -3.25 50 50" xml:space="preserve">
<g>
	<path fill="none" stroke="#89DCA2" stroke-width="2.5" d="M601.209,31.373c0,4.235-3.9,7.699-8.666,7.699h-20.586
		c-4.766,0-8.666-3.464-8.666-7.699V13.088c0-4.234,3.9-7.699,8.666-7.699h20.584c4.766,0,8.666,3.465,8.666,7.699v18.285H601.209z"
		/>
	<path fill="none" stroke="#89DCA2" stroke-width="2.5" d="M593.355,38.913v4.973c0,0.704-0.65,1.283-1.445,1.283h-19.32
		c-0.795,0-1.445-0.579-1.445-1.283v-4.973"/>
	<path fill="none" stroke="#89DCA2" stroke-width="2.5" d="M588.932,6.028c0-1.411,0-2.438,0-3.849V0.897
		c0-1.411-1.301-2.566-2.889-2.566h-7.586c-1.588,0-2.889,1.155-2.889,2.566v1.121c0,1.411,0,2.438,0,3.85"/>
	<path fill="none" stroke="#89DCA2" stroke-width="2.5" stroke-linecap="round" d="M574.943,27.145c7.307,5.47,14.613,0,14.613,0"/>
	<circle fill="#89DCA2" cx="575.975" cy="16.259" r="1.817"/>
	<circle fill="#89DCA2" cx="588.523" cy="16.259" r="1.817"/>
</g>
</svg>
