<?xml version="1.0" encoding="utf-8"?>
<!-- Generator: Adobe Illustrator 16.0.0, SVG Export Plug-In . SVG Version: 6.00 Build 0)  -->
<!DOCTYPE svg PUBLIC "-//W3C//DTD SVG 1.1//EN" "http://www.w3.org/Graphics/SVG/1.1/DTD/svg11.dtd">
<svg version="1.1" id="Layer_1" xmlns="http://www.w3.org/2000/svg" xmlns:xlink="http://www.w3.org/1999/xlink" x="0px" y="0px"
	 width="43.667px" height="44.334px" viewBox="-768.833 263.499 43.667 44.334"
	 enable-background="new -768.833 263.499 43.667 44.334" xml:space="preserve">
<path fill="#F0F0F2" d="M69.068,27.937l-5.061-12.215l-8.572,2.324c-1.107-1.35-2.336-2.575-3.666-3.665l2.326-8.573L41.883,0.75
	l-4.42,7.705c-1.71-0.169-3.445-0.172-5.184-0.002L27.862,0.75L15.646,5.809l2.325,8.57c-1.351,1.109-2.576,2.338-3.666,3.667
	l-8.572-2.324L0.675,27.937l7.706,4.417c-0.17,1.709-0.173,3.445-0.002,5.186l-7.703,4.417l5.059,12.211l8.57-2.322
	c1.11,1.352,2.34,2.575,3.667,3.665l-2.325,8.572l12.215,5.062l4.418-7.707c1.709,0.17,3.445,0.172,5.183,0l4.42,7.707l12.213-5.062
	l-2.324-8.572c1.352-1.108,2.574-2.337,3.664-3.665l8.573,2.322l5.062-12.211l-7.707-4.419c0.169-1.711,0.171-3.445,0-5.184
	L69.068,27.937z M39.768,46.77c-6.529,2.703-14.013-0.396-16.718-6.927c-2.706-6.529,0.396-14.014,6.924-16.719
	c6.53-2.705,14.014,0.396,16.719,6.925C49.396,36.579,46.297,44.062,39.768,46.77z"/>
<g>
	<defs>
		<rect id="SVGID_1_" x="-1069.709" y="-445.5" width="1920" height="1080"/>
	</defs>
	<clipPath id="SVGID_2_">
		<use xlink:href="#SVGID_1_"  overflow="visible"/>
	</clipPath>
</g>
<path fill="none" stroke="#5CA9D2" stroke-width="3" stroke-miterlimit="10" d="M-740.729,286.313
	c6.003,2.696,10.229,9.147,10.229,16.678c0,0.059,0,0.116-0.001,0.175h-32.998c0-0.059,0-0.116,0-0.175
	c0-7.53,4.227-13.981,10.229-16.678c-2.38-1.858-3.911-4.75-3.911-7.997c0-5.606,4.558-10.15,10.181-10.15
	c5.623,0,10.181,4.544,10.181,10.15C-736.818,281.563-738.349,284.455-740.729,286.313z"/>
<path fill="none" stroke="#5CA9D2" stroke-width="3" stroke-miterlimit="10" d="M-756.75,234v-17.5h17.5V234H-756.75z M-748,234
	h17.5v17.5H-748V234z M-765.5,234h17.5v17.5h-17.5V234z"/>
<line fill="none" stroke="#5CA9D2" stroke-width="3" stroke-linecap="square" stroke-miterlimit="10" x1="-759.693" y1="241.922" x2="-753.849" y2="241.922"/>
<line fill="none" stroke="#5CA9D2" stroke-width="3" stroke-linecap="square" stroke-miterlimit="10" x1="-742.193" y1="241.922" x2="-736.349" y2="241.922"/>
<line fill="none" stroke="#5CA9D2" stroke-width="3" stroke-linecap="square" stroke-miterlimit="10" x1="-750.922" y1="234" x2="-745.077" y2="234"/>
<g>
	
		<line fill="none" stroke="#5CA9D2" stroke-width="3" stroke-linecap="square" stroke-miterlimit="10" x1="-765.342" y1="358.099" x2="-735.957" y2="358.099"/>
	<path fill="none" stroke="#5CA9D2" stroke-width="3" stroke-miterlimit="10" d="M-754.024,339.253l8.095-2.004 M-754.528,357.53
		l-3.985-10.921"/>
	<polyline fill="none" stroke="#5CA9D2" stroke-width="3" stroke-miterlimit="10" points="-729.365,331.498 -739.12,325.897 
		-746.456,336.644 -737.228,345.763 -729.324,339.142 	"/>
	<circle fill="none" stroke="#5CA9D2" stroke-width="3" stroke-miterlimit="10" cx="-759.667" cy="341.072" r="5.203"/>
</g>
<line fill="none" stroke="#5CA9D2" stroke-width="3" stroke-linecap="square" stroke-miterlimit="10" x1="-750.922" y1="223.833" x2="-745.077" y2="223.833"/>
</svg>
