<?xml version="1.0" encoding="utf-8"?>
<!-- Generator: Adobe Illustrator 16.0.0, SVG Export Plug-In . SVG Version: 6.00 Build 0)  -->
<!DOCTYPE svg PUBLIC "-//W3C//DTD SVG 1.1//EN" "http://www.w3.org/Graphics/SVG/1.1/DTD/svg11.dtd">
<svg version="1.1" id="Layer_1" xmlns="http://www.w3.org/2000/svg" xmlns:xlink="http://www.w3.org/1999/xlink" x="0px" y="0px"
	 width="25px" height="25px" viewBox="0 0 25 25" enable-background="new 0 0 25 25" xml:space="preserve">
<g>
	<path fill-rule="evenodd" clip-rule="evenodd" fill="#FFFFFF" d="M2.717,14.684c0-1.206,0.971-2.184,2.168-2.184h17.396v8.11
		c0,1.206-0.969,2.184-2.168,2.184H4.885c-1.197,0-2.168-0.968-2.168-2.184V14.684z M6.159,0h-3.45C1.516,0,0.543,0.974,0.543,2.175
		v20.65C0.543,24.021,1.512,25,2.707,25h19.584c1.199,0,2.166-0.975,2.166-2.178V2.717L21.9,0h-2.518v8.115
		c0,1.204-0.967,2.179-2.182,2.179H7.797c-1.205,0-2.182-0.979-2.182-2.179V1.443C5.615,0.89,5.82,0.384,6.159,0z"/>
	<rect x="12.988" y="1.136" fill-rule="evenodd" clip-rule="evenodd" fill="#FFFFFF" width="2.898" height="7.354"/>
</g>
</svg>
